PathFileType	4	(X/Y/Z)	Walk4.trc
DataRate	CameraRate	NumFrames	NumMarkers	Units	OrigDataRate	OrigDataStartFrame	OrigNumFrames
200.000000	200.000000	5	61	mm	200.000000	445	718
Frame#	Times		RCAR		LToe		LLFC		RWRU		RACR1		RFA1		RFHD		LUA1		LFA1		LCAR		RWRR		LElbow		STRN		RLFC		LACR1		LWRU		RTH3		RTB2		LWRR		C7		LFHD		RToe		RMFC		RMT1		RTH2		RMT5		LTH3		LPSI		RPSI		RTB3		LTH4		LTB1		RASI		RCAL		RTB1		LTB3		LTB4		CLAV		LTH2		LTH1		LMT5		RTB4		LTB2		LMT1		RLMAL		RMMAL		LBHD		LMFC		RBHD		RUA1		RElbow		LLMAL		RBack		LASI		RTH1		RTH4		T10		LCAL		LElbowM		LMMAL		RElbowM
			X1	Y1	Z1	X2	Y2	Z2	X3	Y3	Z3	X4	Y4	Z4	X5	Y5	Z5	X6	Y6	Z6	X7	Y7	Z7	X8	Y8	Z8	X9	Y9	Z9	X10	Y10	Z10	X11	Y11	Z11	X12	Y12	Z12	X13	Y13	Z13	X14	Y14	Z14	X15	Y15	Z15	X16	Y16	Z16	X17	Y17	Z17	X18	Y18	Z18	X19	Y19	Z19	X20	Y20	Z20	X21	Y21	Z21	X22	Y22	Z22	X23	Y23	Z23	X24	Y24	Z24	X25	Y25	Z25	X26	Y26	Z26	X27	Y27	Z27	X28	Y28	Z28	X29	Y29	Z29	X30	Y30	Z30	X31	Y31	Z31	X32	Y32	Z32	X33	Y33	Z33	X34	Y34	Z34	X35	Y35	Z35	X36	Y36	Z36	X37	Y37	Z37	X38	Y38	Z38	X39	Y39	Z39	X40	Y40	Z40	X41	Y41	Z41	X42	Y42	Z42	X43	Y43	Z43	X44	Y44	Z44	X45	Y45	Z45	X46	Y46	Z46	X47	Y47	Z47	X48	Y48	Z48	X49	Y49	Z49	X50	Y50	Z50	X51	Y51	Z51	X52	Y52	Z52	X53	Y53	Z53	X54	Y54	Z54	X55	Y55	Z55	X56	Y56	Z56	X57	Y57	Z57	X58	Y58	Z58	X59	Y59	Z59	X60	Y60	Z60	X61	Y61	Z61

445	2.225	-163.1	865.78	375.17	-127.15	31.446	-59.499	-249.45	500.1	-152.62	-147.52	901.21	310.07	-151.64	1511.2	188.56	-186.11	1046	330.81	-0.020416	1684.5	66.482	-188.39	1360.4	-267.3	-95.32	1087.7	-323.11	-5.9857	947.35	-330.33	-218.93	907.51	363.43	-210.45	1192.1	-323.11	-49.202	1300.1	-13.901	-45.336	540.17	193.24	-183.73	1539.9	-179.44	-85.296	955.52	-330.15	-92.638	659.75	201.61	-35.342	304.95	171.58	-15.892	984.28	-274.23	-269.8	1568.9	18.939	-2.2967	1687.3	-38.56	83.63	70.937	123.99	-57.58	523.8	47.823	36.097	77.612	107.26	-79.153	763.65	209.98	-7.5163	54.653	191.85	-218.32	646.27	-178.12	-354.79	1084	-52.716	-350.13	1072.8	55.96	-53.381	222.46	107.17	-217.75	731.46	-195.53	-234.84	350.95	-44.766	-128.64	1049.3	152.17	-183.03	72.802	108.15	-13.78	390.49	113.6	-279.14	186.33	-33.501	-258.62	269.49	-38.654	-109.07	1473.1	-13.763	-159.74	734.33	-187.67	-217.19	817.29	-211.7	-230.61	29.847	-127.51	-34.074	305.88	109.95	-236.11	259.25	-97.757	-182.22	44.722	-39.449	-123.77	106.32	153.63	-87.548	130.68	61.983	-169.17	1703.1	-54.424	-239.42	500.36	-11.449	-169.64	1703.7	88.156	-192.6	1335.2	263.87	-256.2	1182.8	308.3	-318.37	93.34	7.4086	-325.85	1457.8	133.71	-139.25	1037.8	-164.16	-171.42	813.18	214.61	-131.72	734.28	208.68	-329.79	1212.6	-2.3231	-408.69	45.754	-49.893	-240.37	1157.3	-238.6	-342.55	68.469	-93.107	-280.52	1156.3	217.8
446	2.23	-159.2	865.2	375.43	-127.14	31.442	-59.515	-247.71	499.86	-152.49	-143.49	900.57	310.34	-146.3	1510.7	188.74	-181.63	1045.5	331.01	5.1381	1684.1	66.69	-182.84	1360	-267.03	-88.95	1087.7	-322.38	1.0309	947.7	-329.16	-214.89	907.09	363.63	-204.49	1191.6	-322.86	-43.971	1299.7	-13.858	-39.631	539.37	193.53	-178.58	1539.4	-179.21	-78.312	955.57	-329.23	-87.641	659.13	201.79	-23.025	304.48	171.61	-9.1992	984.71	-273.16	-264.56	1568.5	19.178	2.853	1687	-38.351	102.48	73.797	123.16	-51.66	522.98	47.919	54.747	79.123	106.74	-74.141	762.99	210.63	12.095	55.029	191.44	-215.38	645.95	-177.89	-349.64	1083.6	-52.15	-344.69	1072.3	56.474	-38.864	221.55	107.19	-214.22	731.16	-195.23	-233.76	350.61	-44.707	-123.17	1048.8	152.55	-164.1	68.22	108.48	-4.2044	390.62	113.65	-278.65	186.15	-33.478	-257.81	269.23	-38.636	-103.86	1472.6	-13.619	-156.29	733.66	-187.07	-213.09	816.95	-211.31	-230.64	29.77	-127.54	-22	305.49	109.97	-235.44	258.93	-97.707	-182.2	44.748	-39.47	-105.67	103.33	153.74	-70.49	128.85	62.006	-164.03	1702.6	-54.194	-237.89	500.13	-11.293	-164.49	1703.2	88.387	-187.48	1334.7	264.04	-251.32	1182.4	308.41	-318.24	93.29	7.4544	-320.55	1457.4	133.93	-134.03	1037.3	-164.22	-166.47	812.58	214.83	-126.76	733.64	208.77	-324.53	1212.1	-1.8068	-408.7	45.802	-49.837	-234.51	1156.8	-238.39	-342.55	68.483	-93.057	-275.65	1156.1	217.91
447	2.235	-155.25	864.58	375.7	-127.12	31.437	-59.535	-245.97	499.62	-152.35	-139.41	899.88	310.63	-140.93	1510.3	188.94	-177.09	1044.9	331.22	10.307	1683.7	66.908	-177.31	1359.5	-266.74	-82.624	1087.6	-321.63	7.9856	948	-327.98	-210.8	906.64	363.84	-198.55	1191.1	-322.57	-38.717	1299.2	-13.803	-34.065	538.47	193.82	-173.43	1539	-178.96	-71.387	955.57	-328.3	-82.837	658.38	201.95	-10.804	304.11	171.63	-2.5619	985.08	-272.07	-259.32	1568	19.442	8.0083	1686.7	-38.131	121.1	76.884	122.21	-45.893	522.05	47.995	73.189	80.865	106.13	-69.265	762.18	211.3	31.606	55.671	190.98	-212.41	645.62	-177.65	-344.46	1083.1	-51.563	-339.22	1071.7	57.007	-24.49	220.79	107.21	-210.65	730.85	-194.93	-232.68	350.28	-44.638	-117.67	1048.2	152.93	-145.21	63.92	108.94	5.2059	390.76	113.67	-278.16	185.98	-33.455	-257.01	268.98	-38.612	-98.632	1472.1	-13.458	-152.8	732.97	-186.42	-208.93	816.59	-210.91	-230.68	29.689	-127.57	-10.078	305.17	109.97	-234.77	258.62	-97.654	-182.17	44.777	-39.496	-87.623	100.61	153.92	-53.579	127.22	62.069	-158.88	1702.1	-53.947	-236.37	499.91	-11.123	-159.32	1702.7	88.634	-182.32	1334.3	264.23	-246.38	1182.1	308.53	-318.11	93.242	7.5037	-315.22	1456.9	134.19	-128.81	1036.7	-164.28	-161.61	811.87	215	-121.96	732.9	208.83	-319.26	1211.6	-1.2678	-408.7	45.854	-49.78	-228.68	1156.2	-238.14	-342.56	68.495	-93.001	-270.73	1155.8	218.03
448	2.24	-151.23	863.92	375.98	-127.09	31.432	-59.561	-244.22	499.38	-152.19	-135.26	899.16	310.92	-135.54	1509.8	189.16	-172.48	1044.3	331.43	15.485	1683.3	67.139	-171.78	1359	-266.42	-76.341	1087.5	-320.85	14.878	948.25	-326.78	-206.64	906.15	364.06	-192.64	1190.5	-322.25	-33.438	1298.7	-13.736	-28.631	537.48	194.09	-168.27	1538.5	-178.68	-64.522	955.52	-327.35	-78.218	657.49	202.08	1.3105	303.85	171.64	4.02	985.4	-270.96	-254.07	1567.5	19.732	13.169	1686.3	-37.899	139.46	80.189	121.14	-40.278	521.03	48.048	91.393	82.83	105.45	-64.52	761.22	211.98	50.982	56.58	190.49	-209.42	645.28	-177.39	-339.24	1082.6	-50.956	-333.71	1071.1	57.56	-10.275	220.18	107.24	-207.03	730.54	-194.63	-231.6	349.94	-44.56	-112.12	1047.6	153.32	-126.38	59.911	109.53	14.449	390.92	113.65	-277.67	185.8	-33.431	-256.21	268.73	-38.58	-93.395	1471.6	-13.278	-149.29	732.25	-185.71	-204.74	816.21	-210.52	-230.72	29.605	-127.6	1.6789	304.93	109.97	-234.1	258.32	-97.597	-182.13	44.807	-39.525	-69.646	98.162	154.17	-36.847	125.81	62.17	-153.73	1701.6	-53.681	-234.86	499.71	-10.94	-154.15	1702.1	88.898	-177.11	1333.8	264.44	-241.38	1181.7	308.67	-317.99	93.195	7.5557	-309.87	1456.5	134.47	-123.57	1036.1	-164.34	-156.86	811.07	215.13	-117.29	732.04	208.86	-313.96	1211.1	-0.70676	-408.7	45.911	-49.725	-222.87	1155.6	-237.85	-342.56	68.507	-92.941	-265.75	1155.4	218.17
449	2.245	-147.16	863.23	376.27	-127.06	31.426	-59.593	-242.47	499.15	-152.02	-131.06	898.4	311.22	-130.13	1509.3	189.4	-167.82	1043.7	331.67	20.674	1682.9	67.383	-166.27	1358.5	-266.08	-70.102	1087.4	-320.05	21.709	948.45	-325.57	-202.43	905.62	364.3	-186.76	1189.9	-321.89	-28.135	1298.2	-13.656	-23.315	536.41	194.34	-163.11	1537.9	-178.39	-57.718	955.43	-326.38	-73.773	656.49	202.18	13.304	303.69	171.62	10.546	985.66	-269.84	-248.8	1566.9	20.047	18.334	1685.8	-37.654	157.53	83.696	119.96	-34.814	519.91	48.076	109.33	85.007	104.69	-59.896	760.13	212.67	70.185	57.75	189.96	-206.39	644.91	-177.11	-333.99	1082.1	-50.327	-328.17	1070.5	58.132	3.7605	219.72	107.27	-203.38	730.21	-194.33	-230.53	349.61	-44.475	-106.53	1047	153.7	-107.66	56.196	110.24	23.523	391.08	113.6	-277.18	185.63	-33.404	-255.4	268.48	-38.538	-88.145	1471.1	-13.08	-145.75	731.5	-184.96	-200.5	815.81	-210.12	-230.75	29.516	-127.63	13.261	304.76	109.96	-233.43	258.01	-97.536	-182.1	44.838	-39.557	-51.779	95.985	154.49	-20.32	124.6	62.309	-148.57	1701	-53.395	-233.36	499.51	-10.743	-148.97	1701.5	89.181	-171.86	1333.3	264.67	-236.32	1181.2	308.84	-317.87	93.149	7.6093	-304.5	1456	134.78	-118.34	1035.5	-164.38	-152.19	810.17	215.23	-112.75	731.09	208.87	-308.63	1210.5	-0.12463	-408.7	45.974	-49.67	-217.08	1155	-237.51	-342.57	68.521	-92.877	-260.71	1155	218.33
